<svg width="96" height="96" xmlns="http://www.w3.org/2000/svg" xmlns:xlink="http://www.w3.org/1999/xlink" xml:space="preserve" overflow="hidden"><defs><clipPath id="clip0"><rect x="810" y="312" width="96" height="96"/></clipPath></defs><g clip-path="url(#clip0)" transform="translate(-810 -312)"><path d="M904 329.7 904 326.712 871.172 363.132 869.009 365.808 860.017 378.452C858.898 379.952 859.042 381.129 859.547 381.977L854.4 389.117C854.185 389.461 854.055 389.852 854.023 390.257 843.1 386.1 821.648 373.268 819.5 367.734 819.381 367.5 819.342 367.233 819.39 366.975 820.304 366.1 827.634 365.398 832.484 364.934 842.147 364.01 846.171 363.483 847.065 361.982 847.669 360.966 848.5 359.573 834.44 349.6 827.3 344.528 818.578 338.907 813.655 335.974 813.181 335.691 812.567 335.847 812.284 336.321 812.001 336.795 812.157 337.409 812.631 337.692 824.469 344.746 843.6 357.939 845.178 361.046 843.672 361.854 836.878 362.505 832.292 362.946 822.63 363.867 818.605 364.394 817.711 365.9 817.276 366.693 817.247 367.646 817.634 368.463 820.369 375.505 846.072 390.063 855.712 392.963 855.806 392.989 855.903 393.001 856 393 856.068 392.996 856.135 392.985 856.2 392.967 856.309 392.986 856.419 392.997 856.53 393 857.036 392.996 857.53 392.843 857.95 392.56L864.792 387.6C865.569 388.072 866.743 388.28 868.277 387.152L881.3 378.05 884.038 375.939 904 358.288 904 355.618 882.77 374.4 882.354 374.721 872.412 364.78 872.692 364.434ZM856.821 390.909C856.615 391.051 856.337 391.021 856.165 390.84 855.99 390.689 855.943 390.437 856.053 390.234L860.89 383.534 863.329 386.185ZM880.756 375.948 880.122 376.437 867.112 385.521C866.112 386.258 865.812 385.926 865.561 385.657L865.1 385.157 862.084 381.878 862.105 381.85 861.505 381.25C861.144 380.889 860.94 380.563 861.635 379.632L870.6 367.016 871.146 366.34Z"/></g></svg>