<svg width="96" height="96" xmlns="http://www.w3.org/2000/svg" xmlns:xlink="http://www.w3.org/1999/xlink" xml:space="preserve" overflow="hidden"><defs><clipPath id="clip0"><rect x="592" y="312" width="96" height="96"/></clipPath></defs><g clip-path="url(#clip0)" transform="translate(-592 -312)"><path d="M604 386 663 386C663.6 386 664 385.6 664 385 664 384.8 664 384.7 663.9 384.5L649.9 360.5C649.7 360.2 649.4 360 649 360L649 360C648.6 360 648.3 360.2 648.1 360.5L641.8 372.2 626.8 349.4C626.7 349.2 626.3 349 626 349L626 349C625.7 349 625.3 349.2 625.2 349.5L613.3 368.3C613.2 368.4 613.1 368.6 613 368.7L603.1 384.5C602.8 385 602.9 385.6 603.4 385.9 603.6 385.9 603.8 386 604 386ZM649 363.1 661.3 384 649.5 384 643 374.1 649 363.1C649 363.1 649 363.1 649 363.1 649 363.1 649 363.1 649 363.1ZM636.1 367.2 630 363.6C629.6 363.4 629.1 363.4 628.8 363.8L626 366.6 623.7 364.3C623.4 364 623 363.9 622.6 364.1L616.7 366.7 626 351.9C626 351.9 626 351.9 626 351.9 626 351.9 636.1 367.2 636.1 367.2ZM614.8 369.8 622.8 366.2 625.3 368.7C625.7 369.1 626.3 369.1 626.7 368.7L629.7 365.7 638.5 370.8C638.5 370.8 638.5 370.8 638.5 370.8L647.1 384 605.8 384 614.8 369.8Z"/><path d="M613 353C614.7 353 616 351.7 616 350 616 348.3 614.7 347 613 347 611.3 347 610 348.3 610 350 610 351.7 611.3 353 613 353ZM613 349C613.6 349 614 349.4 614 350 614 350.6 613.6 351 613 351 612.4 351 612 350.6 612 350 612 349.4 612.4 349 613 349Z"/><path d="M607 327 607 338 596 338 596 396 672 396 672 385 683 385 683 327 607 327ZM670 394 598 394 598 340 670 340 670 394ZM681 383 672 383 672 338 609 338 609 329 681 329 681 383Z"/></g></svg>