<svg width="96" height="96" xmlns="http://www.w3.org/2000/svg" xmlns:xlink="http://www.w3.org/1999/xlink" xml:space="preserve" overflow="hidden"><defs><clipPath id="clip0"><rect x="309" y="282" width="96" height="96"/></clipPath></defs><g clip-path="url(#clip0)" transform="translate(-309 -282)"><path d="M382.5 304 378.6 307.9C391 320.3 391 340.5 378.6 352.9L382.5 356.8C397.1 342.3 397.1 318.6 382.5 304Z"/><path d="M374.6 311.8 370.7 315.7C378.8 323.8 378.8 336.9 370.7 345.1L374.6 349C384.9 338.7 384.9 322.1 374.6 311.8Z"/><path d="M366.9 319.8 363 323.7C366.8 327.5 366.8 333.6 363 337.4L366.9 341.3C372.9 335.3 372.9 325.7 366.9 319.8Z"/><path d="M312.5 316.6 312.5 343.4 331.9 343.4 357 364 357 296 331.9 316.6Z"/></g></svg>